<svg xmlns="http://www.w3.org/2000/svg" viewBox="0 0 158 22"><defs><style>.cls-1{fill:transparent;}.cls-2{fill:#69b01c;}.cls-3{fill:#0080cc;}</style></defs><title>logo</title><g id="图层_2" data-name="图层 2"><g id="图层_1-2" data-name="图层 1"><rect class="cls-1" width="158" height="22"/><path class="cls-2" d="M23.28,17.13l1.07-4.53c-1,0-1.92,0-2.84,0s-1.66-.28-1.74-1.11a5.71,5.71,0,0,1,.59-2.27c0-.13.49-.17.75-.17,2.55,0,5.09,0,7.64,0,1.87,0,2.78,1.14,2.38,3q-.8,3.62-1.69,7.22a2.19,2.19,0,0,1-2.3,1.82c-5.16,0-10.32.09-15.48-.06a11.29,11.29,0,0,1-4.42-1.2,5.57,5.57,0,0,1-3-6.38c.4-2.05.85-4.1,1.4-6.12A8.86,8.86,0,0,1,14,.23C16.46,0,19,0,21.49,0c4,0,8,0,12,0a2,2,0,0,1,.31.07c-.18.75-.31,1.51-.56,2.24-.36,1.07-1.12,1.51-2.53,1.52-3.1,0-6.19,0-9.29,0a21.17,21.17,0,0,0-4.28.49A4.55,4.55,0,0,0,13.5,8.05c-.42,1.91-.89,3.81-1.27,5.73a2.46,2.46,0,0,0,1.8,3,3.9,3.9,0,0,0,1.2.28C17.87,17.14,20.51,17.13,23.28,17.13Z"/><path class="cls-3" d="M96.14,3.9c.16-.67.3-1.3.46-1.92a2.3,2.3,0,0,1,2.5-2c1.72,0,3.43,0,5.28,0-.51,2.27-1,4.46-1.5,6.64-.8,3.48-1.61,7-2.4,10.44-.62,2.72-2.17,4-5,4-3.4,0-6.81,0-10.21,0a10.39,10.39,0,0,1-5.23-1.33,4.41,4.41,0,0,1-2.35-5.2c.28-1.38.57-2.76.91-4.12.86-3.49,3.38-5.23,6.64-6a21.31,21.31,0,0,1,4.28-.46C91.73,3.85,93.9,3.9,96.14,3.9ZM95.4,7.1c-1.92,0-3.75-.1-5.55,0s-3.24.75-3.78,2.53a44.64,44.64,0,0,0-1.27,5.61c-.26,1.55.31,2.34,1.86,2.49,1.91.19,3.84.16,5.76.17.21,0,.55-.35.62-.6.38-1.46.7-2.93,1-4.41Z"/><path class="cls-3" d="M118.56,4c1.86.1,3.73.09,5.56.34,3.94.52,5.67,3.1,4.81,6.95-.26,1.17-.55,2.34-.83,3.51a8.4,8.4,0,0,1-7.89,6.75,109.93,109.93,0,0,1-11.52,0,6.44,6.44,0,0,1-2.53-.8,4.35,4.35,0,0,1-2.49-5c.34-1.75.7-3.51,1.19-5.22C106,6.66,109,5,112.7,4.39,114.63,4.09,116.61,4.14,118.56,4Zm-2.95,14.62a14.14,14.14,0,0,0,1.44-.11,3.56,3.56,0,0,0,3.3-2.67c.47-1.9.92-3.8,1.29-5.72A1.89,1.89,0,0,0,120,7.66a16.21,16.21,0,0,0-4.18-.06,3.62,3.62,0,0,0-3.16,2.86c-.33,1.19-.53,2.41-.88,3.6C110.7,17.71,112.05,18.64,115.61,18.66Z"/><path class="cls-3" d="M146.81,7.26c-2,0-3.71-.05-5.46,0-1.47.06-2.23.82-2.62,2.46q-1.08,4.61-2.13,9.24c-.46,2-1,2.5-3.12,2.5l-4,0a1.41,1.41,0,0,1-.29-.09c1-4.2,1.85-8.44,3-12.6.85-3.11,3.45-4.92,6.94-5,4.19-.1,8.39-.06,12.59,0a2.15,2.15,0,0,1,2.19,2.62c-1.1,5-2.27,9.91-3.42,14.86a1.51,1.51,0,0,1-.12.25c-1.58,0-3.2.05-4.81,0-1.21-.05-1.76-1-1.45-2.43.49-2.14,1-4.28,1.49-6.42C146,10.86,146.38,9.13,146.81,7.26Z"/><path class="cls-2" d="M44.6.23c-.39,1.73-.77,3.43-1.16,5.12-.62,2.68-1.25,5.35-1.87,8-.55,2.36.43,3.75,2.86,3.92,1.47.1,3,0,4.66,0-.67,1.26-1.25,2.37-1.85,3.46a.65.65,0,0,1-.49.26c-2.88,0-5.79.09-8.65-.21-3.57-.38-5.29-3-4.52-6.56C34.29,11,35,7.77,35.81,4.53a1.48,1.48,0,0,1,.63-.93C39,2.44,41.6,1.34,44.19.23A1.5,1.5,0,0,1,44.6.23Z"/><path class="cls-2" d="M69.16,4.34c-.63.9-1.22,1.82-1.9,2.68a1.41,1.41,0,0,1-.92.41c-1.09.08-2.2,0-3.28.16a3.74,3.74,0,0,0-3.23,2.94,42.14,42.14,0,0,0-1.16,5.11,10.82,10.82,0,0,0,.53,3c-.5.71-1.24,1.82-2,2.89a.91.91,0,0,1-.76.31,18.11,18.11,0,0,1-3.32-1,4.27,4.27,0,0,1-2.28-4.85c.36-1.82.75-3.63,1.26-5.41,1.09-3.78,4-5.57,7.58-6C62.75,4,65.93,4.14,69.07,4Z"/><path class="cls-3" d="M57.89,21.68c.61-.91,1.2-1.84,1.86-2.71a1.39,1.39,0,0,1,.92-.39c1.19-.09,2.41,0,3.58-.2a3.11,3.11,0,0,0,2.64-2.56c.41-1.77.8-3.55,1.21-5.32a2.5,2.5,0,0,0-.8-2.73C68,6.69,68.71,5.63,69.46,4.6a1.06,1.06,0,0,1,.82-.37c4,.44,5.81,3,5,6.91-.27,1.31-.57,2.62-.89,3.92-1,4-3.74,6-7.51,6.51C64,22,60.94,21.88,58,22Z"/></g></g></svg>