<?xml version="1.0" encoding="UTF-8"?>
<svg width="65px" height="64px" viewBox="0 0 65 64" version="1.1" xmlns="http://www.w3.org/2000/svg" xmlns:xlink="http://www.w3.org/1999/xlink">
    <title>web端项目卡片锁定</title>
    <defs>
        <linearGradient x1="50%" y1="0%" x2="50%" y2="100%" id="linearGradient-1">
            <stop stop-color="#9D9D9D" offset="0%"></stop>
            <stop stop-color="#646464" offset="100%"></stop>
        </linearGradient>
        <linearGradient x1="50%" y1="0%" x2="50%" y2="100%" id="linearGradient-2">
            <stop stop-color="#B0B0B0" offset="0%"></stop>
            <stop stop-color="#FFFFFF" offset="100%"></stop>
        </linearGradient>
    </defs>
    <g id="14.空状态&amp;锁状态" stroke="none" stroke-width="1" fill="none" fill-rule="evenodd">
        <g id="web端项目卡片锁定" transform="translate(0.500000, 0.000000)">
            <rect id="矩形" fill="#000000" fill-rule="nonzero" opacity="0" x="0" y="0" width="64" height="64"></rect>
            <path d="M4.0133125,32.0629375 C4.0133125,47.5307765 16.5524735,60.0699375 32.0203125,60.0699375 C47.4881515,60.0699375 60.0273125,47.5307765 60.0273125,32.0629375 C60.0273125,16.5950985 47.4881515,4.0559375 32.0203125,4.0559375 C16.5524735,4.0559375 4.0133125,16.5950985 4.0133125,32.0629375 Z" id="路径" fill="url(#linearGradient-1)"></path>
            <path d="M43.83575,33.084375 L39.459625,33.084375 L39.459625,26.6655 C39.459625,22.56375 36.1224375,19.226125 32.02025,19.226125 C27.9180625,19.226125 24.580875,22.56375 24.580875,26.6655 L24.580875,33.084375 L20.20475,33.084375 L20.20475,26.6655 C20.20475,20.1500625 25.5051875,14.8500625 32.0201875,14.8500625 C38.5351875,14.8500625 43.83575,20.150125 43.83575,26.6655 L43.83575,33.084375 L43.83575,33.084375 Z" id="路径" fill="#231F20" fill-rule="nonzero"></path>
            <path d="M43.83575,31.3339375 L39.459625,31.3339375 L39.459625,24.9150625 C39.459625,20.8133125 36.1224375,17.4756875 32.02025,17.4756875 C27.9180625,17.4756875 24.580875,20.8133125 24.580875,24.9150625 L24.580875,31.3339375 L20.20475,31.3339375 L20.20475,24.9150625 C20.20475,18.399625 25.5051875,13.099625 32.0201875,13.099625 C38.5351875,13.099625 43.83575,18.3996875 43.83575,24.9150625 L43.83575,31.3339375 L43.83575,31.3339375 Z M32.0203125,32.0629375 C30.0868125,32.0629375 28.5194375,33.6303125 28.5194375,35.5638125 C28.5194375,36.8563125 29.2278125,37.972625 30.269875,38.579125 L30.269875,40.815125 C30.269875,41.781875 31.0535625,42.5655625 32.0203125,42.5655625 C32.9870625,42.5655625 33.77075,41.781875 33.77075,40.815125 L33.77075,38.579125 C34.8128125,37.9726875 35.5211875,36.856375 35.5211875,35.5638125 C35.5211875,33.6303125 33.9538125,32.0629375 32.0203125,32.0629375 L32.0203125,32.0629375 Z" id="形状" fill="#4E4E4E" fill-rule="nonzero"></path>
            <path d="M45.1485625,27.686875 L18.892,27.686875 C17.441875,27.686875 16.2663125,28.8624375 16.2663125,30.3125625 L16.2663125,46.94175 C16.2663125,48.391875 17.441875,49.5674375 18.892,49.5674375 L45.1485625,49.5674375 C46.5986875,49.5674375 47.77425,48.391875 47.77425,46.94175 L47.77425,30.3125 C47.77425,28.862375 46.5986875,27.686875 45.1485625,27.686875 Z M33.77075,40.3295625 L33.77075,42.5655625 C33.77075,43.5323125 32.9870625,44.316 32.0203125,44.316 C31.0535625,44.316 30.269875,43.5323125 30.269875,42.5655625 L30.269875,40.3295625 C29.2278125,39.723125 28.5194375,38.6068125 28.5194375,37.31425 C28.5194375,35.38075 30.0868125,33.813375 32.0203125,33.813375 C33.9538125,33.813375 35.5211875,35.38075 35.5211875,37.31425 C35.5211875,38.6068125 34.81275,39.7230625 33.77075,40.3295625 L33.77075,40.3295625 Z" id="形状" fill="#231F20" fill-rule="nonzero"></path>
            <path d="M45.1485625,25.9364375 L18.892,25.9364375 C17.441875,25.9364375 16.2663125,27.112 16.2663125,28.562125 L16.2663125,45.19125 C16.2663125,46.641375 17.441875,47.8169375 18.892,47.8169375 L45.1485625,47.8169375 C46.5986875,47.8169375 47.77425,46.641375 47.77425,45.19125 L47.77425,28.5620625 C47.77425,27.1119375 46.5986875,25.9364375 45.1485625,25.9364375 Z M33.77075,38.579125 L33.77075,40.815125 C33.77075,41.781875 32.9870625,42.5655625 32.0203125,42.5655625 C31.0535625,42.5655625 30.269875,41.781875 30.269875,40.815125 L30.269875,38.579125 C29.2278125,37.9726875 28.5194375,36.856375 28.5194375,35.5638125 C28.5194375,33.6303125 30.0868125,32.0629375 32.0203125,32.0629375 C33.9538125,32.0629375 35.5211875,33.6303125 35.5211875,35.5638125 C35.5211875,36.856375 34.81275,37.972625 33.77075,38.579125 L33.77075,38.579125 Z" id="形状" fill="url(#linearGradient-2)" fill-rule="nonzero"></path>
        </g>
    </g>
</svg>